<svg width="37" height="38" viewBox="0 0 37 38" fill="none" xmlns="http://www.w3.org/2000/svg">
<path fill-rule="evenodd" clip-rule="evenodd" d="M18.5 37C28.7173 37 37 28.7173 37 18.5C37 8.28273 28.7173 0 18.5 0C8.28273 0 0 8.28273 0 18.5C0 28.7173 8.28273 37 18.5 37Z" fill="#F1F1ED"/>
<mask id="mask0" mask-type="alpha" maskUnits="userSpaceOnUse" x="-1" y="-1" width="39" height="39">
<path fill-rule="evenodd" clip-rule="evenodd" d="M18.5 37C28.7173 37 37 28.7173 37 18.5C37 8.28273 28.7173 0 18.5 0C8.28273 0 0 8.28273 0 18.5C0 28.7173 8.28273 37 18.5 37Z" fill="white" stroke="white" stroke-width="1.19355"/>
</mask>
<g mask="url(#mask0)">
<path fill-rule="evenodd" clip-rule="evenodd" d="M7.85938 37.7099C7.85938 34.1351 10.4602 31.0918 13.9913 30.5346L18.5251 29.8193L23.0588 30.5346C26.5899 31.0918 29.1907 34.1351 29.1907 37.7099V49.4248H7.85938V37.7099Z" fill="#0A4F14"/>
<path fill-rule="evenodd" clip-rule="evenodd" d="M16.3242 27.1045H20.2276V30.8155C20.2276 31.8934 19.3538 32.7672 18.2759 32.7672C17.198 32.7672 16.3242 31.8934 16.3242 30.8155V27.1045Z" fill="#A13729"/>
<mask id="mask1" mask-type="alpha" maskUnits="userSpaceOnUse" x="16" y="27" width="5" height="6">
<path fill-rule="evenodd" clip-rule="evenodd" d="M16.3242 27.1045H20.2276V30.8155C20.2276 31.8934 19.3538 32.7672 18.2759 32.7672C17.198 32.7672 16.3242 31.8934 16.3242 30.8155V27.1045Z" fill="white"/>
</mask>
<g mask="url(#mask1)">
<path opacity="0.644984" fill-rule="evenodd" clip-rule="evenodd" d="M18.1394 30.5678C20.0523 30.5678 21.603 29.0171 21.603 27.1042C21.603 25.1913 20.0523 23.6406 18.1394 23.6406C16.2265 23.6406 14.6758 25.1913 14.6758 27.1042C14.6758 29.0171 16.2265 30.5678 18.1394 30.5678Z" fill="#F3A2A2"/>
</g>
<path fill-rule="evenodd" clip-rule="evenodd" d="M23.418 20.3428H23.488C23.9107 20.3428 24.2313 20.7239 24.1589 21.1405L23.9332 22.4384C23.8896 22.6889 23.6722 22.8717 23.418 22.8717V20.3428Z" fill="#F47D6D" stroke="#CE5E4F" stroke-width="0.378332"/>
<path fill-rule="evenodd" clip-rule="evenodd" d="M13.3594 20.3428H13.2894C12.8666 20.3428 12.546 20.7239 12.6185 21.1405L12.8442 22.4384C12.8878 22.6889 13.1051 22.8717 13.3594 22.8717V20.3428Z" fill="#F47D6D" stroke="#CE5E4F" stroke-width="0.378332"/>
<path fill-rule="evenodd" clip-rule="evenodd" d="M13.25 18.1979C13.25 15.3741 15.5391 13.085 18.3629 13.085C21.1867 13.085 23.4759 15.3741 23.4759 18.1979V23.9725C23.4759 24.8457 23.337 25.7184 22.9663 26.5091C22.7015 27.0739 22.3577 27.7113 21.9944 28.1297C21.554 28.6369 20.7994 29.1509 20.2207 29.5051C19.7034 29.8217 19.1031 29.9631 18.4967 29.9631H17.9805C17.2109 29.9631 16.454 29.7353 15.8529 29.2549C15.4185 28.9076 14.943 28.4915 14.6826 28.1489C14.4346 27.8225 14.1254 27.2255 13.8578 26.6614C13.4341 25.7682 13.25 24.7847 13.25 23.7962V18.1979Z" fill="#FFB5B5"/>
<path fill-rule="evenodd" clip-rule="evenodd" d="M13.25 17.6481C13.25 14.8243 15.5391 12.5352 18.3629 12.5352C21.1867 12.5352 23.4759 14.8243 23.4759 17.6481V22.8729C23.4759 23.7462 23.337 24.6188 22.9663 25.4095C22.7015 25.9743 22.3577 26.6117 21.9944 27.0301C21.2079 27.9358 15.2427 27.7864 14.6826 27.0493C14.4346 26.7229 14.1254 26.1259 13.8578 25.5618C13.4341 24.6686 13.25 23.6852 13.25 22.6966V17.6481Z" fill="#CD5E4F"/>
<path d="M21.5819 19.7359C21.3236 19.5302 20.9965 19.4072 20.6406 19.4072C20.2225 19.4072 19.844 19.5769 19.5703 19.8512" stroke="#231100" stroke-width="0.491832" stroke-linejoin="round"/>
<path d="M15.1681 19.7359C15.4264 19.5302 15.7535 19.4072 16.1094 19.4072C16.5275 19.4072 16.906 19.5769 17.1797 19.8512" stroke="#231100" stroke-width="0.491832" stroke-linejoin="round"/>
<path fill-rule="evenodd" clip-rule="evenodd" d="M13.25 22.8838L13.6749 24.6272C14.0576 26.1972 15.7853 27.0202 17.2456 26.3281L17.4041 26.253C18.0653 25.9396 18.8386 25.9725 19.4708 26.3409C20.6607 27.0343 22.1882 26.4872 22.6671 25.196L23.4759 23.0156V25.9264C23.4759 28.3041 21.9542 30.4151 19.6984 31.1668L18.4607 31.5792L17.0867 31.1386C14.8007 30.4054 13.25 28.2795 13.25 25.8788L13.25 22.8838Z" fill="#25252F"/>
<path fill-rule="evenodd" clip-rule="evenodd" d="M16.2444 21.0571C16.4721 21.0571 16.6567 20.8725 16.6567 20.6448C16.6567 20.417 16.4721 20.2324 16.2444 20.2324C16.0166 20.2324 15.832 20.417 15.832 20.6448C15.832 20.8725 16.0166 21.0571 16.2444 21.0571Z" fill="#231100"/>
<path fill-rule="evenodd" clip-rule="evenodd" d="M20.6428 21.0571C20.8705 21.0571 21.0551 20.8725 21.0551 20.6448C21.0551 20.417 20.8705 20.2324 20.6428 20.2324C20.4151 20.2324 20.2305 20.417 20.2305 20.6448C20.2305 20.8725 20.4151 21.0571 20.6428 21.0571Z" fill="#231100"/>
<path fill-rule="evenodd" clip-rule="evenodd" d="M18.389 21.0605C18.5399 21.0605 18.6675 21.1719 18.688 21.3213L18.9566 23.2815C19.0055 23.6382 18.7283 23.956 18.3683 23.956C18.0033 23.956 17.7247 23.6298 17.7818 23.2694L18.091 21.3152C18.1142 21.1685 18.2406 21.0605 18.389 21.0605Z" fill="#A54032"/>
<path fill-rule="evenodd" clip-rule="evenodd" d="M18.4098 25.9646C19.662 25.9646 19.7459 24.5742 19.7459 24.5742H18.3621C17.8983 24.5742 16.9783 24.5742 16.9783 24.5742C16.9783 24.5742 17.1576 25.9646 18.4098 25.9646Z" fill="white"/>
</g>
</svg>
