<svg width="250" height="250" viewBox="0 0 250 250" fill="none" xmlns="http://www.w3.org/2000/svg">
<path d="M125 250C194.036 250 250 194.036 250 125C250 55.9644 194.036 0 125 0C55.9644 0 0 55.9644 0 125C0 194.036 55.9644 250 125 250Z" fill="#FFDD84"/>
<path d="M40 57.5V58.9298V142.144L52.5967 150.151L90.9595 89.8135L40 57.5Z" fill="#05365B"/>
<path d="M217.502 58.9298V57.5L166.543 89.8135L204.906 150.151L217.502 142.144V58.9298Z" fill="#008C61"/>
<path d="M184.571 162.448C195.451 155.585 198.313 140.715 190.87 129.276L181.709 114.978C174.265 103.54 159.664 99.8225 148.785 106.686L116.148 127.275C105.269 134.138 102.406 149.008 109.85 160.446L119.011 174.744C126.455 186.183 141.055 189.9 151.934 183.037L184.571 162.448Z" fill="#E29D81"/>
<path d="M180.566 165.021C184.574 162.447 185.719 157.014 183.142 153.01C180.566 149.007 175.126 147.863 171.118 150.437L110.997 188.469C106.989 191.043 105.844 196.476 108.421 200.48C110.997 204.483 116.437 205.627 120.445 203.053L180.566 165.021Z" fill="#E29D81"/>
<path d="M110.143 160.445L119.304 174.743C126.747 186.182 141.348 189.899 152.227 183.036L184.864 162.447C195.743 155.584 198.606 140.714 191.162 129.276L182.001 114.978" fill="#D3856A"/>
<path d="M143.355 151.01C147.363 148.436 148.508 143.003 145.931 139C143.355 134.996 137.915 133.852 133.907 136.426L73.7864 174.745C69.7783 177.318 68.6332 182.752 71.2098 186.755C73.7864 190.758 79.2259 191.902 83.2339 189.329L143.355 151.01Z" fill="#E29D81"/>
<path d="M155.952 162.447C159.96 159.874 161.106 154.441 158.529 150.437C155.952 146.434 150.513 145.29 146.505 147.863L86.384 186.182C82.376 188.756 81.2308 194.189 83.8074 198.193C86.384 202.196 91.8235 203.34 95.8316 200.766L155.952 162.447Z" fill="#E29D81"/>
<path d="M143.066 131.278C147.074 128.704 148.219 123.271 145.642 119.267C143.066 115.264 137.626 114.12 133.618 116.694L73.4973 155.012C69.4893 157.586 68.3441 163.019 70.9207 167.023C73.4973 171.026 78.9368 172.17 82.9449 169.596L143.066 131.278Z" fill="#E29D81"/>
<path d="M155.088 103.825C155.088 103.825 121.306 108.687 118.443 109.544C115.866 110.402 107.85 129.848 117.011 132.135C126.459 134.423 141.346 122.413 141.346 122.413L155.088 103.825Z" fill="#E29D81"/>
<path d="M172.289 93.0946L163.35 98.7725L196.534 150.901L205.474 145.223L172.289 93.0946Z" fill="white"/>
<path d="M172.268 93.2451L163.393 98.9643L196.602 151.009" fill="#DFE2E5"/>
<path d="M217.502 57.5L166.543 89.8135L204.906 150.151" fill="#006D49"/>
<path d="M183.714 174.458L178.274 171.027C181.424 171.313 184.859 169.883 186.577 167.023C189.153 163.02 188.008 157.587 184 155.013L143.92 129.562C146.782 123.557 141.057 110.689 139.053 109.831C136.476 108.973 105.557 104.684 102.694 104.112C92.9601 101.252 81.7948 105.542 75.7827 114.978L66.6214 129.276C59.1779 140.715 62.0408 155.585 72.9198 162.448L75.4964 164.164C75.7827 164.45 76.3553 165.021 76.9279 165.307L137.049 203.626C141.057 206.2 146.496 205.056 149.073 201.052C150.504 198.765 150.791 196.191 149.932 193.903L161.383 201.338C165.391 203.912 170.831 202.768 173.407 198.765C175.411 195.905 175.125 192.188 173.407 189.614L173.98 189.9C177.988 192.474 183.428 191.33 186.004 187.326C189.153 182.465 188.008 177.032 183.714 174.458Z" fill="#F9BDA0"/>
<path d="M139.919 200.194C138.201 199.05 137.628 197.048 138.774 195.332L139.919 193.331C141.064 191.615 143.068 191.043 144.786 192.187C146.503 193.331 147.076 195.332 145.931 197.048L144.786 199.05C143.927 200.766 141.636 201.338 139.919 200.194Z" fill="#FFE4C7"/>
<path d="M177.141 186.183C175.424 185.039 174.851 183.037 175.996 181.322L177.141 179.32C178.286 177.604 180.291 177.032 182.008 178.176C183.726 179.32 184.299 181.322 183.153 183.037L182.008 185.039C181.149 186.755 178.859 187.327 177.141 186.183Z" fill="#FFE4C7"/>
<path d="M164.54 197.621C162.822 196.477 162.249 194.475 163.395 192.759L164.54 190.757C165.685 189.042 167.689 188.47 169.407 189.614C171.124 190.757 171.697 192.759 170.552 194.475L169.407 196.477C168.262 198.192 166.258 198.764 164.54 197.621Z" fill="#FFE4C7"/>
<path d="M177.425 166.737C175.707 165.593 175.134 163.591 176.279 161.875L177.425 159.874C178.57 158.158 180.574 157.586 182.291 158.73C184.009 159.874 184.582 161.875 183.437 163.591L182.578 165.593C181.433 167.309 179.142 167.595 177.425 166.737Z" fill="#FFE4C7"/>
<path d="M51.969 145.346L60.9082 151.022L94.0846 98.8969L85.1454 93.2205L51.969 145.346Z" fill="white"/>
<path d="M85.233 93.2451L94.108 98.9643L60.8984 151.009" fill="#DFE2E5"/>
<path d="M40 57.5L90.9595 89.8135L52.5967 150.151" fill="#00263D"/>
<path d="M60.0419 112.405C58.3241 115.264 54.6024 115.836 52.0258 114.12C49.1629 112.405 48.5903 108.687 50.308 106.113C52.0258 103.254 55.7475 102.682 58.3241 104.398C60.9007 106.113 61.7596 109.831 60.0419 112.405Z" fill="#FFC114"/>
<path d="M184.004 154.726L143.923 129.275C146.786 123.27 141.061 110.402 139.057 109.544C137.911 108.972 129.895 107.828 121.593 106.685L112.432 135.281L187.726 159.301C187.153 157.586 186.008 155.87 184.004 154.726Z" fill="#E8AB92"/>
<path d="M145.929 111.548C148.505 115.838 149.651 126.99 146.215 128.992L117.3 135.283C113.864 137.285 109.284 135.283 106.707 131.279C104.131 126.99 104.989 122.129 108.425 120.127L129.038 108.117C132.473 106.115 143.066 106.687 145.643 110.69L145.929 111.548Z" fill="#E29D81"/>
</svg>
