<svg width="24" height="24" viewBox="0 0 24 24" fill="none" xmlns="http://www.w3.org/2000/svg">
<path opacity="0.2" fill-rule="evenodd" clip-rule="evenodd" d="M20.9437 11.0007C20.9152 10.7476 20.6202 10.5575 20.3651 10.5575C19.5403 10.5575 18.8084 10.0732 18.5014 9.32425C18.1879 8.55714 18.3901 7.66252 19.0048 7.09867C19.1982 6.9218 19.2218 6.62571 19.0595 6.42003C18.6373 5.88398 18.1575 5.39977 17.6337 4.98011C17.4285 4.81549 17.1275 4.8384 16.9496 5.03537C16.4132 5.62948 15.4495 5.85029 14.7049 5.53961C13.93 5.21365 13.4414 4.42846 13.4892 3.5856C13.5049 3.32085 13.3114 3.09067 13.0475 3.05993C12.3752 2.98217 11.697 2.97976 11.0227 3.05457C10.7618 3.08337 10.5683 3.30813 10.5771 3.56953C10.6064 4.40408 10.1119 5.17554 9.34466 5.48978C8.60894 5.79029 7.65208 5.57135 7.11668 4.98252C6.93973 4.78857 6.64364 4.76473 6.43749 4.9254C5.89808 5.3486 5.40749 5.83322 4.98146 6.36485C4.8153 6.57153 4.83974 6.8711 5.03517 7.04891C5.66159 7.61617 5.86385 8.51857 5.53842 9.29452C5.22773 10.0343 4.45953 10.5111 3.58008 10.5111C3.2947 10.5019 3.09143 10.6934 3.06022 10.9529C2.98106 11.6291 2.98012 12.318 3.05634 12.9997C3.0846 13.2538 3.3886 13.4422 3.64652 13.4422C4.43026 13.4222 5.18272 13.9074 5.49837 14.6755C5.81302 15.4426 5.61075 16.3367 4.99512 16.901C4.80257 17.0779 4.77813 17.3735 4.94041 17.5792C5.3586 18.1119 5.83847 18.5965 6.36422 19.0197C6.57044 19.1858 6.87048 19.1624 7.04924 18.9654C7.58771 18.3698 8.55128 18.1494 9.29296 18.4607C10.0698 18.7857 10.5584 19.5708 10.5106 20.4141C10.495 20.679 10.6894 20.9096 10.9523 20.9399C11.2962 20.98 11.6422 21 11.9892 21C12.3185 21 12.6479 20.9819 12.9772 20.9453C13.2382 20.9165 13.4315 20.6917 13.4228 20.4299C13.3925 19.5958 13.888 18.8243 14.6541 18.5106C15.3948 18.2081 16.3477 18.4295 16.8831 19.0177C17.0611 19.2113 17.3551 19.2347 17.5624 19.0745C18.1008 18.6523 18.5904 18.1681 19.0184 17.635C19.1845 17.4288 19.1611 17.1288 18.9646 16.951C18.3382 16.3837 18.135 15.4812 18.4604 14.7058C18.7663 13.9759 19.506 13.4858 20.3016 13.4858L20.4129 13.4886C20.671 13.5096 20.9084 13.3108 20.9397 13.0474C21.019 12.3707 21.0199 11.6823 20.9437 11.0007ZM12.0142 15.0212C10.3587 15.0212 9.01213 13.6747 9.01213 12.0192C9.01213 10.3638 10.3587 9.01721 12.0142 9.01721C13.6696 9.01721 15.0162 10.3638 15.0162 12.0192C15.0162 13.6747 13.6696 15.0212 12.0142 15.0212Z" fill="#8CA0B3"/>
</svg>
