<svg width="20" height="20" viewBox="0 0 20 20" fill="none" xmlns="http://www.w3.org/2000/svg">
<path d="M18.9965 1.33973C18.9938 1.31899 18.9907 1.29902 18.9844 1.27867C18.9778 1.25636 18.9688 1.23601 18.9586 1.21527C18.9531 1.20392 18.9511 1.19178 18.9445 1.18082C18.9402 1.17378 18.9331 1.16908 18.9281 1.16243C18.9151 1.14443 18.8999 1.12877 18.8838 1.11272C18.8678 1.09668 18.8517 1.0818 18.8333 1.06889C18.8267 1.06419 18.8224 1.05754 18.8157 1.05362C18.8048 1.04697 18.7926 1.0454 18.7813 1.03992C18.7598 1.02936 18.7386 1.02036 18.7159 1.0137C18.6967 1.00861 18.678 1.00587 18.6584 1.00353C18.6353 1.00079 18.613 0.99922 18.5899 1.00039C18.5684 1.00157 18.5476 1.00587 18.5265 1.01096C18.5132 1.01409 18.4995 1.01292 18.4862 1.01762L1.26504 6.88846C1.10927 6.9409 1.0032 7.08611 1.00007 7.25088C0.99694 7.41566 1.09714 7.56478 1.25134 7.62388L9.29713 10.7155L12.7738 18.764C12.8361 18.9076 12.9778 19 13.1331 19C13.1398 19 13.1461 19 13.1527 18.9996C13.3159 18.9914 13.4564 18.883 13.5061 18.7276L18.9856 1.50646C18.9895 1.49433 18.9883 1.4818 18.9907 1.46928C18.9954 1.44736 18.9989 1.42623 18.9997 1.40392C19.0005 1.382 18.9993 1.36126 18.9965 1.33973ZM2.5398 7.28024L17.1453 2.30098L9.494 9.95225L2.5398 7.28024ZM13.0772 17.4928L10.0556 10.4978L17.7515 2.80157L13.0772 17.4928Z" fill="#8CA0B3" fill-opacity="0.2"/>
<path d="M19.2444 1.307L19.2445 1.30815L19.2444 1.307ZM19.2444 1.307C19.2413 1.28373 19.2361 1.24697 19.2236 1.20606C19.2129 1.17024 19.1996 1.13967 19.1879 1.11532C19.1848 1.1062 19.1756 1.07975 19.1582 1.05109L19.1578 1.05047C19.1474 1.03343 19.1368 1.02027 19.1288 1.01113C19.1252 1.007 19.1218 1.00332 19.1189 1.00034C19.0968 0.972121 19.0746 0.949921 19.0612 0.936537L19.0606 0.935949C19.0438 0.919097 19.0209 0.89717 18.9922 0.875422C18.9898 0.873117 18.9869 0.870533 18.9838 0.867858C18.9747 0.859994 18.9614 0.849434 18.944 0.839063C18.916 0.822244 18.89 0.813216 18.8795 0.809741C18.8529 0.797176 18.8218 0.784224 18.7862 0.773796L18.7863 0.773716L18.78 0.772061C18.7436 0.762409 18.711 0.758045 18.6882 0.755306L18.6878 0.755267C18.6574 0.751654 18.6197 0.748554 18.5772 0.750715L18.5763 0.750766C18.538 0.752853 18.5043 0.759503 18.4799 0.765101M19.2444 1.307L18.4799 0.765101M18.4799 0.765101C18.4695 0.766147 18.4394 0.769303 18.405 0.781172C18.4043 0.7814 18.4036 0.781632 18.403 0.781867L1.18527 6.65152C1.1851 6.65158 1.18494 6.65164 1.18477 6.65169C0.928688 6.73815 0.75524 6.97651 0.750116 7.24613C0.744988 7.516 0.909179 7.76046 1.16185 7.85731L1.16167 7.85724L1.25134 7.62388L1.16188 7.85732L18.4799 0.765101ZM9.10932 10.9111L12.5443 18.8631L12.5444 18.8634C12.6464 19.0987 12.8784 19.25 13.1331 19.25H13.1342C13.1401 19.25 13.1519 19.25 13.1653 19.2493M9.10932 10.9111L19.2235 1.58321L13.7444 18.8034L13.7442 18.8038C13.6629 19.0581 13.4327 19.2358 13.1653 19.2493M9.10932 10.9111L9.06763 10.8146L9.29713 10.7155L9.20746 10.9488L9.10932 10.9111ZM13.1653 19.2493C13.166 19.2493 13.1667 19.2492 13.1674 19.2492L13.1527 18.9996L13.1653 19.2493ZM19.2379 1.50825C19.2371 1.51816 19.2348 1.54791 19.2238 1.58226L19.2379 1.50825ZM19.2379 1.50825C19.2432 1.48177 19.2482 1.44943 19.2495 1.41283L19.2379 1.50825ZM19.1096 0.991008C19.1098 0.991195 19.1105 0.991926 19.1115 0.992952L19.1102 0.991574L19.1096 0.991008ZM9.43207 9.66063L3.27337 7.29428L16.2081 2.88461L9.43207 9.66063ZM10.3525 10.5546L17.2018 3.70494L13.0416 16.78L10.3525 10.5546Z" stroke="#8CA0B3" stroke-opacity="0.2" stroke-width="0.5"/>
<path d="M7.14765 12.8521C6.99462 12.699 6.74726 12.699 6.59423 12.8521L1.11477 18.3315C0.961742 18.4846 0.961742 18.7319 1.11477 18.885C1.1911 18.9613 1.29129 18.9996 1.39149 18.9996C1.49168 18.9996 1.59188 18.9613 1.6682 18.885L7.14765 13.4055C7.30068 13.2525 7.30068 13.0051 7.14765 12.8521Z" fill="#8CA0B3" fill-opacity="0.2"/>
<path d="M7.32443 12.6753C7.07376 12.4246 6.66811 12.4246 6.41745 12.6753L0.937998 18.1548C0.687334 18.4054 0.687334 18.8111 0.937998 19.0617C1.06298 19.1867 1.22754 19.2496 1.39149 19.2496C1.55544 19.2496 1.72 19.1867 1.84498 19.0617L7.32443 13.5823C7.57509 13.3316 7.57509 12.926 7.32443 12.6753Z" stroke="#8CA0B3" stroke-opacity="0.2" stroke-width="0.5"/>
<path d="M8.15919 15.5923L5.41946 18.332C5.26643 18.4851 5.26643 18.7324 5.41946 18.8855C5.49578 18.9618 5.59598 19.0001 5.69617 19.0001C5.79637 19.0001 5.89657 18.9618 5.97289 18.8855L8.71261 16.1457C8.86565 15.9927 8.86565 15.7453 8.71261 15.5923C8.55958 15.4393 8.31222 15.4393 8.15919 15.5923Z" fill="#8CA0B3" fill-opacity="0.2"/>
<path d="M7.98241 15.4155L5.24269 18.1553C4.99202 18.4059 4.99202 18.8116 5.24269 19.0622C5.36766 19.1872 5.53222 19.2501 5.69617 19.2501C5.86013 19.2501 6.02469 19.1872 6.14966 19.0622L8.88939 16.3225C9.14005 16.0718 9.14005 15.6662 8.88939 15.4155C8.63872 15.1649 8.23308 15.1649 7.98241 15.4155Z" stroke="#8CA0B3" stroke-opacity="0.2" stroke-width="0.5"/>
<path d="M1.39149 14.6945C1.49168 14.6945 1.59188 14.6561 1.6682 14.5798L4.40792 11.8401C4.56096 11.687 4.56096 11.4397 4.40792 11.2866C4.25489 11.1336 4.00753 11.1336 3.8545 11.2866L1.11477 14.0264C0.961742 14.1794 0.961742 14.4268 1.11477 14.5798C1.1911 14.6561 1.29129 14.6945 1.39149 14.6945Z" fill="#8CA0B3" fill-opacity="0.2"/>
<path d="M1.39149 14.9445C1.55544 14.9445 1.72 14.8816 1.84498 14.7566L4.5847 12.0169C4.83537 11.7662 4.83537 11.3605 4.5847 11.1099C4.33404 10.8592 3.92839 10.8592 3.67772 11.1099L0.937998 13.8496C0.687334 14.1003 0.687334 14.5059 0.937998 14.7566C1.06298 14.8816 1.22754 14.9445 1.39149 14.9445Z" stroke="#8CA0B3" stroke-opacity="0.2" stroke-width="0.5"/>
</svg>
