<svg width="11" height="16" viewBox="0 0 11 16" fill="none" xmlns="http://www.w3.org/2000/svg">
<path fill-rule="evenodd" clip-rule="evenodd" d="M1.71402 14.6486C1.68637 14.6486 1.65841 14.6449 1.63076 14.6376C1.49919 14.6018 1.40925 14.487 1.41016 14.3571L1.44814 9.73041C1.44875 9.66129 1.47549 9.59479 1.5232 9.54274L9.18457 1.17817C9.29517 1.05788 9.4872 1.04544 9.61361 1.15012C9.74001 1.25538 9.75308 1.43785 9.64278 1.55814L2.05524 9.84203L2.02638 13.317L3.70061 10.7055C3.78843 10.569 3.9753 10.5259 4.11841 10.6092C4.26153 10.6922 4.3068 10.8706 4.21929 11.0065L1.97351 14.5101C1.9173 14.5977 1.81793 14.6486 1.71402 14.6486Z" fill="#2D74DA"/>
<path d="M1.71402 14.6486C1.68637 14.6486 1.65841 14.6449 1.63076 14.6376C1.49919 14.6018 1.40925 14.487 1.41016 14.3571L1.44814 9.73041C1.44875 9.66129 1.47549 9.59479 1.5232 9.54273L9.18457 1.17817C9.29517 1.05788 9.4872 1.04544 9.61361 1.15012C9.74001 1.25538 9.75308 1.43785 9.64278 1.55814L2.05524 9.84203L2.02638 13.317L3.70061 10.7055C3.78843 10.569 3.9753 10.5259 4.11841 10.6092C4.26153 10.6922 4.3068 10.8706 4.21929 11.0065L1.97351 14.5101C1.9173 14.5977 1.81793 14.6486 1.71402 14.6486" stroke="#2D74DA"/>
</svg>
