<svg width="23" height="24" viewBox="0 0 23 24" fill="none" xmlns="http://www.w3.org/2000/svg">
<path fill-rule="evenodd" clip-rule="evenodd" d="M19.0625 8.125C21.2371 8.125 23 6.36212 23 4.1875C23 2.01288 21.2371 0.25 19.0625 0.25C16.8879 0.25 15.125 2.01288 15.125 4.1875C15.125 6.36212 16.8879 8.125 19.0625 8.125Z" fill="#2D74DA"/>
<path fill-rule="evenodd" clip-rule="evenodd" d="M15.6531 16.8562C14.231 14.4003 15.0605 13.0415 14.5016 8.49546C14.0007 4.42239 10.8815 3.2563 9.28387 2.92342V0H7.65829V2.92342C6.05843 3.2563 2.93924 4.42234 2.4395 8.49546C1.88052 13.0394 2.71005 14.4003 1.28796 16.8562C0.91007 17.5044 0.438268 18.0256 0 18.4274V19.3756H16.9399V18.4274C16.5028 18.0256 16.0288 17.5044 15.6531 16.8562Z" fill="#8CA0B3"/>
<path fill-rule="evenodd" clip-rule="evenodd" d="M8.47104 23.9352C9.56825 23.9352 10.4577 23.0641 10.4577 21.9896C10.4577 20.915 9.56825 20.0439 8.47104 20.0439C7.37384 20.0439 6.48438 20.915 6.48438 21.9896C6.48438 23.0641 7.37384 23.9352 8.47104 23.9352Z" fill="#8CA0B3"/>
</svg>
