<svg width="16" height="16" viewBox="0 0 16 16" fill="none" xmlns="http://www.w3.org/2000/svg">
<path fill-rule="evenodd" clip-rule="evenodd" d="M2.01712 7.52572L12.8264 12.1279L14.0519 1.86144L2.01712 7.52572ZM13.0819 12.8424C13.0393 12.8424 12.9971 12.8337 12.9576 12.8172L1.17993 7.80272C1.07267 7.75704 1.00248 7.65611 1.00005 7.54421C0.997923 7.4323 1.06386 7.32906 1.1693 7.27933L14.2824 1.10813C14.3818 1.06128 14.5006 1.06967 14.5917 1.13068C14.6829 1.19141 14.7315 1.29464 14.719 1.3999L13.3836 12.5859C13.3727 12.6773 13.3165 12.7588 13.2323 12.8042C13.1858 12.8297 13.1338 12.8424 13.0819 12.8424Z" fill="#2D74DA"/>
<path d="M2.01712 7.52572L1.8042 7.07332L0.794435 7.54858L1.82126 7.98576L2.01712 7.52572ZM12.8264 12.1279L12.6306 12.5879L13.2439 12.849L13.3229 12.1871L12.8264 12.1279ZM14.0519 1.86144L14.5483 1.9207L14.6553 1.02482L13.8389 1.40904L14.0519 1.86144ZM12.9576 12.8172L12.7617 13.2773L12.7651 13.2787L12.9576 12.8172ZM1.17993 7.80272L0.983986 8.26273L0.984063 8.26276L1.17993 7.80272ZM1.00005 7.54421L0.500138 7.55371L0.500168 7.55506L1.00005 7.54421ZM1.1693 7.27933L0.956389 6.82692L0.955977 6.82711L1.1693 7.27933ZM14.2824 1.10813L14.4953 1.56053L14.4956 1.56038L14.2824 1.10813ZM14.5917 1.13068L14.3136 1.54619L14.3145 1.5468L14.5917 1.13068ZM14.719 1.3999L15.2155 1.45917L15.2156 1.45867L14.719 1.3999ZM13.3836 12.5859L13.8801 12.6453L13.8801 12.6452L13.3836 12.5859ZM13.2323 12.8042L12.9949 12.3642L12.9922 12.3656L13.2323 12.8042ZM1.82126 7.98576L12.6306 12.5879L13.0223 11.6678L2.21299 7.06568L1.82126 7.98576ZM13.3229 12.1871L14.5483 1.9207L13.5554 1.80218L12.3299 12.0686L13.3229 12.1871ZM13.8389 1.40904L1.8042 7.07332L2.23005 7.97812L14.2648 2.31383L13.8389 1.40904ZM13.0819 12.3424C13.1073 12.3424 13.1304 12.3476 13.1502 12.3558L12.7651 13.2787C12.8638 13.3199 12.9713 13.3424 13.0819 13.3424V12.3424ZM13.1535 12.3572L1.3758 7.34269L0.984063 8.26276L12.7617 13.2773L13.1535 12.3572ZM1.37588 7.34272C1.43984 7.36996 1.49788 7.43867 1.49993 7.53335L0.500168 7.55506C0.507086 7.87356 0.705506 8.14411 0.983986 8.26273L1.37588 7.34272ZM1.49996 7.5347C1.50177 7.62994 1.44587 7.7017 1.38262 7.73154L0.955977 6.82711C0.681852 6.95643 0.494076 7.23465 0.50014 7.55371L1.49996 7.5347ZM1.3822 7.73173L14.4953 1.56053L14.0695 0.655721L0.956389 6.82692L1.3822 7.73173ZM14.4956 1.56038C14.4379 1.58762 14.37 1.58394 14.3136 1.54619L14.8699 0.715171C14.6311 0.555395 14.3257 0.534942 14.0692 0.655871L14.4956 1.56038ZM14.3145 1.5468C14.2547 1.50692 14.2121 1.42949 14.2225 1.34113L15.2156 1.45867C15.251 1.15979 15.1111 0.875899 14.8689 0.714562L14.3145 1.5468ZM14.2226 1.34063L12.8871 12.5266L13.8801 12.6452L15.2155 1.45917L14.2226 1.34063ZM12.8872 12.5265C12.8962 12.4507 12.9411 12.3932 12.9949 12.3642L13.4697 13.2443C13.6918 13.1245 13.8491 12.9039 13.8801 12.6453L12.8872 12.5265ZM12.9922 12.3656C13.0217 12.3495 13.0527 12.3424 13.0819 12.3424V13.3424C13.215 13.3424 13.3499 13.3099 13.4724 13.2428L12.9922 12.3656Z" fill="#2D74DA"/>
<path fill-rule="evenodd" clip-rule="evenodd" d="M6.71402 14.6486C6.68637 14.6486 6.65841 14.6449 6.63076 14.6376C6.49919 14.6018 6.40925 14.487 6.41016 14.3571L6.44814 9.73041C6.44875 9.66129 6.47549 9.59479 6.5232 9.54274L14.1846 1.17817C14.2952 1.05788 14.4872 1.04544 14.6136 1.15012C14.74 1.25538 14.7531 1.43785 14.6428 1.55814L7.05524 9.84203L7.02638 13.317L8.70061 10.7055C8.78843 10.569 8.9753 10.5259 9.11841 10.6092C9.26153 10.6922 9.3068 10.8706 9.21929 11.0065L6.97351 14.5101C6.9173 14.5977 6.81793 14.6486 6.71402 14.6486Z" fill="#2D74DA"/>
<path d="M6.71402 14.6486C6.68637 14.6486 6.65841 14.6449 6.63076 14.6376C6.49919 14.6018 6.40925 14.487 6.41016 14.3571L6.44814 9.73041C6.44875 9.66129 6.47549 9.59479 6.5232 9.54273L14.1846 1.17817C14.2952 1.05788 14.4872 1.04544 14.6136 1.15012C14.74 1.25538 14.7531 1.43785 14.6428 1.55814L7.05524 9.84203L7.02638 13.317L8.70061 10.7055C8.78843 10.569 8.9753 10.5259 9.11841 10.6092C9.26153 10.6922 9.3068 10.8706 9.21929 11.0065L6.97351 14.5101C6.9173 14.5977 6.81793 14.6486 6.71402 14.6486" stroke="#2D74DA"/>
</svg>
